<?xml version="1.0" encoding="UTF-8" standalone="no"?>
<!-- Created with Inkscape (http://www.inkscape.org/) -->

<svg
   width="400.37543"
   height="256.75339"
   viewBox="0 0 400.37543 256.75339"
   version="1.1"
   id="svg1"
   xml:space="preserve"
   sodipodi:docname="forza-pi-dash-cover.svg"
   inkscape:version="1.3.2 (091e20e, 2023-11-25, custom)"
   xmlns:inkscape="http://www.inkscape.org/namespaces/inkscape"
   xmlns:sodipodi="http://sodipodi.sourceforge.net/DTD/sodipodi-0.dtd"
   xmlns="http://www.w3.org/2000/svg"
   xmlns:svg="http://www.w3.org/2000/svg"><sodipodi:namedview
     id="namedview1"
     pagecolor="#ffffff"
     bordercolor="#000000"
     borderopacity="0.25"
     inkscape:showpageshadow="2"
     inkscape:pageopacity="0.0"
     inkscape:pagecheckerboard="0"
     inkscape:deskcolor="#d1d1d1"
     inkscape:document-units="px"
     showguides="true"
     inkscape:zoom="1.5"
     inkscape:cx="221.33333"
     inkscape:cy="231.33333"
     inkscape:window-width="1920"
     inkscape:window-height="992"
     inkscape:window-x="-8"
     inkscape:window-y="-8"
     inkscape:window-maximized="1"
     inkscape:current-layer="layer1" /><defs
     id="defs1"><rect
       x="106.43487"
       y="17.337541"
       width="275.65808"
       height="61.451912"
       id="rect4" /><style
       id="style1">.b{fill:#fff;fill-rule:evenodd;}</style></defs><g
     inkscape:label="Layer 1"
     inkscape:groupmode="layer"
     id="layer1"
     style="display:inline"
     transform="translate(-876.99105,-480.95373)"><rect
       style="opacity:0.992647;fill:#000000;fill-opacity:0;stroke:#000000;stroke-width:0.37795276;stroke-dasharray:none;stroke-opacity:1"
       id="rect1"
       width="400.04208"
       height="256.42004"
       x="877.15771"
       y="481.12039"
       ry="8.7967196"
       inkscape:label="Cover" /><rect
       style="display:none;opacity:0.992647;fill:#000000;fill-opacity:0;stroke:#000000;stroke-width:0.325896;stroke-dasharray:none;stroke-opacity:1"
       id="rect3"
       width="131.95757"
       height="131.95757"
       x="1047.1055"
       y="549.02094"
       inkscape:label="Fan outline" /><path
       class="b"
       d="m 1021.4724,655.18836 39.1011,-4.71695 v 0 l 21.4539,-31.30156 -32.0878,-5.48244 z m 39.0184,-56.93449 5.4617,-7.96504 c 6.6617,-9.72355 17.7921,-15.55769 29.7292,-15.55769 h 109.0693 l -5.4617,7.96504 c -6.6616,9.72355 -17.8127,15.55769 -29.7293,15.55769 z m 45.349,35.02548 20.4608,-29.85338 h 20.8747 l -18.5783,27.10181 z m 29.6878,-3.5791 18.0196,-26.27428 h 20.8746 l -11.5648,16.86105 c -2.8964,4.24112 -7.5306,7.03407 -12.682,7.65471 l -14.6474,1.77921 z m -107.8693,-25.09504 0.8069,-1.17924 h 91.484 l -21.0401,30.7016 -22.6951,2.73087 14.6887,-21.43319 z"
       id="path1"
       style="fill:#000000;fill-opacity:0;stroke:#000000;stroke-width:0.37795276;stroke-dasharray:none;stroke-opacity:1"
       sodipodi:nodetypes="ccccccccsccscccccccccccccccccccc"
       inkscape:label="Forza logo fan inlet" /></g><g
     inkscape:groupmode="layer"
     id="layer2"
     inkscape:label="3mm screw Holes"
     transform="translate(-876.99105,-480.95373)"><rect
       style="display:none;opacity:0.992647;fill:#000000;fill-opacity:0;stroke:#000000;stroke-width:0.330113;stroke-dasharray:none;stroke-opacity:1"
       id="rect2"
       width="374.97699"
       height="233.24469"
       x="889.69025"
       y="492.70807"
       inkscape:label="Screw hole measurement" /><ellipse
       style="opacity:0.992647;fill:#000000;fill-opacity:0;stroke:#000000;stroke-width:0.334187;stroke-dasharray:none;stroke-opacity:1"
       id="path2"
       cx="1264.8323"
       cy="492.543"
       rx="4.9352684"
       ry="4.9352689"
       inkscape:label="Top right" /><ellipse
       style="opacity:0.992647;fill:#000000;fill-opacity:0;stroke:#000000;stroke-width:0.334187;stroke-dasharray:none;stroke-opacity:1"
       id="path2-8"
       cx="1264.8323"
       cy="726.1178"
       rx="4.9352684"
       ry="4.9352689"
       inkscape:label="Bottom right" /><ellipse
       style="opacity:0.992647;fill:#000000;fill-opacity:0;stroke:#000000;stroke-width:0.334187;stroke-dasharray:none;stroke-opacity:1"
       id="path2-0"
       cx="889.52521"
       cy="726.1178"
       rx="4.9352689"
       ry="4.9352694"
       inkscape:label="Bottom left" /><circle
       style="opacity:0.992647;fill:#000000;fill-opacity:0;stroke:#000000;stroke-width:0.334187;stroke-dasharray:none;stroke-opacity:1"
       id="path2-09"
       cx="889.52521"
       cy="492.543"
       inkscape:label="Top left"
       r="4.9352689" /><path
       d="m 142.13184,33.02423 h -12.84375 v -4.09375 h 12.84375 z m 1.8125,-9.1875 h -16.28125 v 18.34375 h -4.0625 V 21.821105 q 0,-0.421875 0.15625,-0.796875 0.15625,-0.375 0.42187,-0.65625 0.28125,-0.28125 0.65625,-0.4375 0.375,-0.15625 0.8125,-0.15625 h 18.29688 z m 20.73437,12.640625 q 0,1.046875 -0.26562,1.890625 -0.26563,0.828125 -0.70313,1.46875 -0.4375,0.625 -1.01562,1.078125 -0.57813,0.4375 -1.21875,0.71875 -0.625,0.28125 -1.28125,0.421875 -0.64063,0.125 -1.21875,0.125 h -7.32813 q -0.84375,0 -1.84375,-0.296875 -1,-0.296875 -1.85937,-0.96875 -0.84375,-0.6875 -1.42188,-1.765625 -0.5625,-1.09375 -0.5625,-2.671875 v -5.5 q 0,-1.5625 0.5625,-2.640625 0.57813,-1.09375 1.42188,-1.765625 0.85937,-0.6875 1.85937,-0.984375 1,-0.296875 1.84375,-0.296875 h 7.32813 q 1.5625,0 2.65625,0.5625 1.09375,0.5625 1.76562,1.421875 0.67188,0.84375 0.96875,1.84375 0.3125,1 0.3125,1.859375 z m -4.0625,-5.46875 q 0,-0.84375 -0.42187,-1.25 -0.42188,-0.40625 -1.21875,-0.40625 h -7.29688 q -0.8125,0 -1.23437,0.421875 -0.42188,0.40625 -0.42188,1.203125 v 5.5 q 0,0.796875 0.42188,1.21875 0.42187,0.421875 1.23437,0.421875 h 7.29688 q 0.82812,0 1.23437,-0.421875 0.40625,-0.421875 0.40625,-1.21875 z m 22.29688,-1.65625 h -9.14063 q -0.82812,0 -1.25,0.421875 -0.42187,0.40625 -0.42187,1.203125 V 42.18048 h -4.0625 V 30.977355 q 0,-1.046875 0.26562,-1.875 0.26563,-0.828125 0.70313,-1.453125 0.45312,-0.640625 1.03125,-1.078125 0.57812,-0.453125 1.20312,-0.734375 0.64063,-0.28125 1.28125,-0.40625 0.65625,-0.140625 1.21875,-0.140625 h 9.17188 z m 18.67187,-2.8125 q 0.25,0.578125 0.125,1.171875 -0.10937,0.59375 -0.53125,1.03125 l -9.39062,9.375 h 9.76562 v 4.0625 h -14.65625 q -0.625,0 -1.14062,-0.34375 -0.5,-0.359375 -0.75,-0.90625 -0.23438,-0.578125 -0.125,-1.171875 0.125,-0.609375 0.57812,-1.0625 l 9.34375,-9.34375 h -9.76562 v -4.0625 h 14.6875 q 0.60937,0 1.10937,0.328125 0.51563,0.328125 0.75,0.921875 z m 20.67188,10.046875 q 0,0.84375 -0.29688,1.828125 -0.29687,0.96875 -0.96875,1.8125 -0.65625,0.828125 -1.73437,1.390625 -1.0625,0.5625 -2.59375,0.5625 h -7.32813 q -0.84375,0 -1.82812,-0.296875 -0.96875,-0.296875 -1.8125,-0.953125 -0.82813,-0.671875 -1.39063,-1.734375 -0.5625,-1.078125 -0.5625,-2.609375 0,-0.84375 0.29688,-1.828125 0.29687,-0.984375 0.95312,-1.8125 0.67188,-0.84375 1.73438,-1.40625 1.07812,-0.5625 2.60937,-0.5625 h 7.32813 v 3.875 h -7.32813 q -0.82812,0 -1.28125,0.515625 -0.45312,0.5 -0.45312,1.25 0,0.796875 0.51562,1.25 0.53125,0.4375 1.25,0.4375 h 7.29688 q 0.82812,0 1.28125,-0.5 0.45312,-0.5 0.45312,-1.25 v -5.671875 q 0,-0.796875 -0.5,-1.265625 -0.48437,-0.46875 -1.23437,-0.46875 h -8.92188 v -3.859375 h 8.92188 q 0.84375,0 1.8125,0.296875 0.98437,0.296875 1.8125,0.96875 0.84375,0.65625 1.40625,1.734375 0.5625,1.0625 0.5625,2.59375 z m 36.65625,-7.4375 q 0,1.390625 -0.34375,2.484375 -0.34375,1.09375 -0.9375,1.9375 -0.57813,0.828125 -1.34375,1.421875 -0.76563,0.59375 -1.60938,0.96875 -0.82812,0.375 -1.6875,0.546875 -0.84375,0.171875 -1.59375,0.171875 h -9.1875 v -4.0625 h 9.1875 q 0.78125,-0.0625 1.40625,-0.3125 0.64063,-0.265625 1.09375,-0.703125 0.45313,-0.4375 0.70313,-1.046875 0.25,-0.625 0.25,-1.40625 v -1.84375 q -0.0781,-0.765625 -0.32813,-1.40625 -0.25,-0.640625 -0.6875,-1.09375 -0.42187,-0.453125 -1.03125,-0.703125 -0.60937,-0.265625 -1.40625,-0.265625 h -9.15625 q -0.8125,0 -1.23437,0.421875 -0.42188,0.421875 -0.42188,1.21875 V 42.18048 h -4.0625 V 25.477355 q 0,-1.5625 0.5625,-2.65625 0.57813,-1.09375 1.42188,-1.765625 0.85937,-0.671875 1.85937,-0.96875 1,-0.3125 1.84375,-0.3125 h 9.1875 q 1.375,0 2.46875,0.359375 1.09375,0.34375 1.92188,0.9375 0.84375,0.578125 1.42187,1.34375 0.59375,0.765625 0.96875,1.609375 0.39063,0.828125 0.5625,1.6875 0.17188,0.84375 0.17188,1.59375 z m 7.14062,-7.328125 h -4.0625 V 18.14923 h 4.0625 z m 0,20.359375 h -4.0625 V 25.289855 h 4.0625 z m 37.10938,-9.375 q 0,2.046875 -0.71875,3.765625 -0.70313,1.71875 -1.95313,2.96875 -1.25,1.234375 -2.96875,1.9375 -1.71875,0.703125 -3.73437,0.703125 h -10.96875 q -0.4375,0 -0.8125,-0.15625 -0.375,-0.15625 -0.65625,-0.421875 -0.26563,-0.28125 -0.42188,-0.65625 -0.15625,-0.375 -0.15625,-0.8125 v -18.3125 q 0,-0.421875 0.15625,-0.796875 0.15625,-0.375 0.42188,-0.65625 0.28125,-0.28125 0.65625,-0.4375 0.375,-0.15625 0.8125,-0.15625 h 10.96875 q 2.01562,0 3.73437,0.703125 1.71875,0.703125 2.96875,1.953125 1.25,1.234375 1.95313,2.96875 0.71875,1.71875 0.71875,3.75 z m -4.0625,-3.65625 q 0,-1.1875 -0.39063,-2.171875 -0.375,-0.984375 -1.07812,-1.671875 -0.70313,-0.703125 -1.6875,-1.078125 -0.96875,-0.390625 -2.15625,-0.390625 h -8.95313 v 14.28125 h 8.95313 q 1.1875,0 2.15625,-0.375 0.98437,-0.390625 1.6875,-1.078125 0.70312,-0.703125 1.07812,-1.671875 0.39063,-0.984375 0.39063,-2.1875 z m 24.95312,7.4375 q 0,0.84375 -0.29687,1.828125 -0.29688,0.96875 -0.96875,1.8125 -0.65625,0.828125 -1.73438,1.390625 -1.0625,0.5625 -2.59375,0.5625 h -7.32812 q -0.84375,0 -1.82813,-0.296875 -0.96875,-0.296875 -1.8125,-0.953125 -0.82812,-0.671875 -1.39062,-1.734375 -0.5625,-1.078125 -0.5625,-2.609375 0,-0.84375 0.29687,-1.828125 0.29688,-0.984375 0.95313,-1.8125 0.67187,-0.84375 1.73437,-1.40625 1.07813,-0.5625 2.60938,-0.5625 h 7.32812 v 3.875 h -7.32812 q -0.82813,0 -1.28125,0.515625 -0.45313,0.5 -0.45313,1.25 0,0.796875 0.51563,1.25 0.53125,0.4375 1.25,0.4375 h 7.29687 q 0.82813,0 1.28125,-0.5 0.45313,-0.5 0.45313,-1.25 v -5.671875 q 0,-0.796875 -0.5,-1.265625 -0.48438,-0.46875 -1.23438,-0.46875 h -8.92187 v -3.859375 h 8.92187 q 0.84375,0 1.8125,0.296875 0.98438,0.296875 1.8125,0.96875 0.84375,0.65625 1.40625,1.734375 0.5625,1.0625 0.5625,2.59375 z m 19.79688,-0.109375 q 0,1.046875 -0.26563,1.890625 -0.26562,0.828125 -0.70312,1.46875 -0.4375,0.625 -1.01563,1.078125 -0.57812,0.4375 -1.21875,0.71875 -0.625,0.28125 -1.28125,0.421875 -0.64062,0.125 -1.21875,0.125 h -11 v -4.0625 h 10.96875 q 0.82813,0 1.25,-0.421875 0.42188,-0.421875 0.42188,-1.21875 -0.0781,-1.625 -1.64063,-1.625 h -6.29687 q -1.34375,0 -2.28125,-0.46875 -0.9375,-0.46875 -1.53125,-1.171875 -0.57813,-0.703125 -0.84375,-1.515625 -0.25,-0.8125 -0.25,-1.515625 0,-1.359375 0.48437,-2.28125 0.48438,-0.9375 1.21875,-1.515625 0.73438,-0.578125 1.59375,-0.828125 0.85938,-0.265625 1.60938,-0.265625 h 9.98437 v 4.0625 h -9.95312 q -0.3125,0 -0.5,0.07813 -0.17188,0.0625 -0.26563,0.1875 -0.0781,0.109375 -0.0937,0.25 -0.0156,0.125 -0.0156,0.25 0.0156,0.25 0.0937,0.390625 0.0781,0.140625 0.1875,0.203125 0.125,0.0625 0.26562,0.07813 0.15625,0 0.29688,0 h 6.29687 q 1.5625,0 2.65625,0.5625 1.09375,0.5625 1.76563,1.421875 0.67187,0.84375 0.96875,1.84375 0.3125,1 0.3125,1.859375 z m 21.625,5.703125 h -4.0625 V 30.977355 q 0,-0.796875 -0.40625,-1.203125 -0.40625,-0.421875 -1.21875,-0.421875 h -7.32813 v -4.0625 h 7.32813 q 0.57812,0 1.21875,0.140625 0.64062,0.125 1.26562,0.40625 0.64063,0.28125 1.21875,0.734375 0.57813,0.4375 1.01563,1.078125 0.4375,0.625 0.70312,1.453125 0.26563,0.828125 0.26563,1.875 z m -14.65625,0 h -4.0625 V 18.14923 h 4.0625 z"
       id="text4"
       style="font-size:32px;line-height:1;font-family:Audiowide;-inkscape-font-specification:'Audiowide, Normal';text-align:center;text-anchor:middle;white-space:pre;opacity:0.992647;fill-opacity:0;stroke:#000000;stroke-width:0.37795276;stroke-dasharray:none"
       transform="translate(832.64067,474.12642)"
       aria-label="Forza Pi Dash" /></g></svg>
